{"title":"Guzaarish (2010).HDRip.XviD - TG","uid":11193329,"size":1568273732,"categoryP":"video","categoryS":"hd___movies","magnet":"?xt=urn:btih:42c57ce4ba6b11573743c7c26e86216da5f3867f&amp;dn=Guzaarish+%282010%29.HDRip.XviD+-+TG&amp;tr=udp%3A%2F%2Ftracker.openbittorrent.com%3A80&amp;tr=udp%3A%2F%2Fopen.demonii.com%3A1337&amp;tr=udp%3A%2F%2Ftracker.coppersurfer.tk%3A6969&amp;tr=udp%3A%2F%2Fexodus.desync.com%3A6969","seeders":1,"leechers":0,"uploader":"inovai","files":4,"time":1413037984,"description":"Guzaarish (2010).HDRip.XviD-TG\n\nCover:\n &lt;a href=&quot;\nhttp://forum.primetimeshow.in/viewtopic.php?f=7&amp;t=769&quot; rel=&quot;nofollow&quot; target=&quot;_NEW&quot;&gt;\nhttp://forum.primetimeshow.in/viewtopic.php?f=7&amp;t=769&lt;/a&gt;\n\nStory:\nA paralyzed Magician-turned-Radio Jockey files a Petition in Court seeking permission to end his life.\n\nScreenshots:\n &lt;a href=&quot;\nhttp://m.primetimeshow.in/share-E52C_5439230E.html&quot; rel=&quot;nofollow&quot; target=&quot;_NEW&quot;&gt;\nhttp://m.primetimeshow.in/share-E52C_5439230E.html&lt;/a&gt;\n &lt;a href=&quot;\nhttp://m.primetimeshow.in/share-0FE4_54392281.html&quot; rel=&quot;nofollow&quot; target=&quot;_NEW&quot;&gt;\nhttp://m.primetimeshow.in/share-0FE4_54392281.html&lt;/a&gt;\n &lt;a href=&quot;\nhttp://m.primetimeshow.in/share-E5D1_54392281.html&quot; rel=&quot;nofollow&quot; target=&quot;_NEW&quot;&gt;\nhttp://m.primetimeshow.in/share-E5D1_54392281.html&lt;/a&gt;\n &lt;a href=&quot;\nhttp://m.primetimeshow.in/share-CFAF_54392281.html&quot; rel=&quot;nofollow&quot; target=&quot;_NEW&quot;&gt;\nhttp://m.primetimeshow.in/share-CFAF_54392281.html&lt;/a&gt;\n &lt;a href=&quot;\nhttp://m.primetimeshow.in/share-C6DD_54392281.html&quot; rel=&quot;nofollow&quot; target=&quot;_NEW&quot;&gt;\nhttp://m.primetimeshow.in/share-C6DD_54392281.html&lt;/a&gt;\n &lt;a href=&quot;\nhttp://m.primetimeshow.in/share-CD1D_5439230E.html&quot; rel=&quot;nofollow&quot; target=&quot;_NEW&quot;&gt;\nhttp://m.primetimeshow.in/share-CD1D_5439230E.html&lt;/a&gt;\n &lt;a href=&quot;\nhttp://m.primetimeshow.in/share-A31B_5439230E.html&quot; rel=&quot;nofollow&quot; target=&quot;_NEW&quot;&gt;\nhttp://m.primetimeshow.in/share-A31B_5439230E.html&lt;/a&gt;\n\nDirector: Sanjay Leela Bhansali\nWriters: Sanjay Leela Bhansali (screenplay), Bhavani Iyer (dialogue)\nStars: Hrithik Roshan, Aishwarya Rai Bachchan, Shernaz Patel\nCountry: India\nLanguage: Hindi | English\nRelease Date: 19 November 2010 (India)\n\nPlot Keywords: nurse | magician | quadriplegic | euthanasia | physician\nGenres: Comedy | Drama | Romance\n\nMedia Information:\n\nFormat : AVI\nFormat/Info : Audio Video Interleave\nFile size : 1.46 GiB\nDuration : 2h 6mn\nOverall bit rate : 1 659 Kbps\nVideo\nID : 0\nFormat : MPEG-4 Visual\nFormat profile : Advanced Simple@L5\nFormat settings, BVOP : 1\nFormat settings, QPel : No\nFormat settings, GMC : No warppoints\nFormat settings, Matrix : Default (MPEG)\nCodec ID : XVID\nCodec ID/Hint : XviD\nDuration : 2h 6mn\nBit rate : 1 457 Kbps\nWidth : 720 pixels\nHeight : 304 pixels\nDisplay aspect ratio : 2.35:1\nFrame rate : 24.000 fps\nColor space : YUV\nChroma subsampling : 4:2:0\nBit depth : 8 bits\nScan type : Progressive\nCompression mode : Lossy\nBits/(Pixel*Frame) : 0.277\nStream size : 1.28 GiB (88%)\n\n\nAudio\nID : 1\nFormat : AC-3\nFormat/Info : Audio Coding 3\nMode extension : CM (complete main)\nFormat settings, Endianness : Big\nCodec ID : 2000\nDuration : 2h 6mn\nBit rate mode : Constant\nBit rate : 192 Kbps\nChannel(s) : 2 channels\nChannel positions : Front: L R\nSampling rate : 48.0 KHz\nBit depth : 16 bits\nCompression mode : Lossy\nStream size : 173 MiB (12%)\nAlignment : Split accross interleaves\nInterleave, duration : 42 ms (1.00 video frame)\nInterleave, preload duration : 500 ms\n\nSeedbox seeding 24x7 @ 1Gbps !\n\nThanks to TG!\n\nSeed n ENjoy!!","torrent":{"xt":"urn:btih:42c57ce4ba6b11573743c7c26e86216da5f3867f","amp;dn":"Guzaarish+%282010%29.HDRip.XviD+-+TG","amp;tr":["udp%3A%2F%2Ftracker.openbittorrent.com%3A80","udp%3A%2F%2Fopen.demonii.com%3A1337","udp%3A%2F%2Ftracker.coppersurfer.tk%3A6969","udp%3A%2F%2Fexodus.desync.com%3A6969"],"infoHash":"42c57ce4ba6b11573743c7c26e86216da5f3867f","infoHashBuffer":{"type":"Buffer","data":[66,197,124,228,186,107,17,87,55,67,199,194,110,134,33,109,165,243,134,127]},"announce":[],"urlList":[]}}